<svg viewBox="0 0 480 300" fill="none" xmlns="http://www.w3.org/2000/svg" role="img" aria-hidden="true">
  <defs>
    <linearGradient id="ship-hull-grad" x1="80" y1="200" x2="400" y2="230" gradientUnits="userSpaceOnUse">
      <stop stop-color="#1A2D42"/>
      <stop offset="1" stop-color="#0D1B2A"/>
    </linearGradient>
    <linearGradient id="ship-deck-grad" x1="120" y1="150" x2="340" y2="200" gradientUnits="userSpaceOnUse">
      <stop stop-color="#243852"/>
      <stop offset="1" stop-color="#1A2D42"/>
    </linearGradient>
  </defs>
  <path d="M55 228 Q75 222 90 228 L88 236 Q72 232 55 236 Z" fill="#0D1B2A" fill-opacity="0.08"/>
  <path d="M70 218 L410 218 L385 248 L95 248 Z" fill="url(#ship-hull-grad)"/>
  <path d="M70 218 L55 228 L95 248 Z" fill="#0D1B2A"/>
  <path d="M95 248 L385 248 L375 255 L105 255 Z" fill="#0D1B2A" fill-opacity="0.35"/>
  <path d="M110 218 L110 168 L360 168 L360 218 Z" fill="url(#ship-deck-grad)"/>
  <rect x="110" y="212" width="250" height="6" fill="#0D1B2A" fill-opacity="0.2"/>
  <rect x="122" y="138" width="46" height="30" rx="3" fill="#1FAD6F"/>
  <rect x="124" y="140" width="42" height="4" rx="1" fill="#fff" fill-opacity="0.25"/>
  <rect x="172" y="128" width="46" height="40" rx="3" fill="#F5C842"/>
  <rect x="174" y="130" width="42" height="4" rx="1" fill="#fff" fill-opacity="0.25"/>
  <rect x="222" y="132" width="46" height="36" rx="3" fill="#E8490F"/>
  <rect x="224" y="134" width="42" height="4" rx="1" fill="#fff" fill-opacity="0.25"/>
  <rect x="272" y="124" width="46" height="44" rx="3" fill="#0D1B2A"/>
  <rect x="274" y="126" width="42" height="4" rx="1" fill="#fff" fill-opacity="0.25"/>
  <rect x="322" y="130" width="40" height="38" rx="3" fill="#2E6BE6"/>
  <rect x="324" y="132" width="36" height="4" rx="1" fill="#fff" fill-opacity="0.25"/>
  <rect x="148" y="108" width="38" height="28" rx="3" fill="#E8490F" fill-opacity="0.85"/>
  <rect x="196" y="100" width="38" height="32" rx="3" fill="#1FAD6F"/>
  <rect x="244" y="104" width="38" height="28" rx="3" fill="#F5C842"/>
  <path d="M360 168 L360 128 L395 108 L420 128 L420 168 Z" fill="#8A97A8"/>
  <rect x="368" y="118" width="36" height="22" rx="2" fill="#C5D0DC"/>
  <rect x="372" y="122" width="10" height="8" rx="1" fill="#1A2D42" fill-opacity="0.3"/>
  <rect x="386" y="122" width="10" height="8" rx="1" fill="#1A2D42" fill-opacity="0.3"/>
  <rect x="400" y="100" width="6" height="68" fill="#4A5568"/>
  <rect x="398" y="96" width="10" height="8" rx="1" fill="#E8490F"/>
  <path d="M130 168 L130 118 L145 118 L145 168" stroke="#4A5568" stroke-width="3"/>
  <path d="M130 118 L165 108" stroke="#4A5568" stroke-width="2.5" stroke-linecap="round"/>
  <circle cx="88" cy="205" r="7" stroke="#E8490F" stroke-width="2.5" fill="none"/>
</svg>
